<?xml version="1.0"?>
<svg xmlns="http://www.w3.org/2000/svg" xmlns:xlink="http://www.w3.org/1999/xlink" version="1.1" id="Capa_1" x="0px" y="0px" viewBox="0 0 512 512" style="enable-background:new 0 0 512 512;" xml:space="preserve" width="512px" height="512px" class=""><g transform="matrix(1.0199 0 0 1.0199 -5.09337 19.8072)"><path style="fill:#7F7E7D" d="M242.298,273.707c0,4.535,0,68.295,0,66.354c0,16.807,0,106.221,0,120.18h27.403  c0-14.279,0-155.065,0-154.616c0-11.889,0-20.022,0-31.918H242.298z" data-original="#7F7E7D" class=""/><path style="fill:#5B5A5A" d="M242.298,273.707c0,4.535,0,68.295,0,66.354c0,16.807,0,106.221,0,120.18H256  c0-60.071,0-126.144,0-186.535h-13.702V273.707z" data-original="#727272" class="" data-old_color="#666666"/><path style="fill:#5B5A5A" d="M222.108,192.895h67.785c-22.706,19.624-28.549,53.232-15.284,79.863  c0.915,1.836-0.445,3.994-2.488,3.994h-32.665c-1.886,0-3.069-2-2.217-3.691c4.557-9.032,7.152-19.363,7.152-30.346  C244.391,222.582,235.691,204.636,222.108,192.895z" data-original="#CCCCCC" class="" data-old_color="#CCCCCC"/><path style="fill:#666666" d="M255.939,273.789c12.183-26.027,8.76-58.872-9.892-80.893h-23.94  c13.584,11.74,22.284,29.687,22.284,49.82c0,10.983-2.595,21.314-7.152,30.346c-0.853,1.69,0.331,3.69,2.217,3.69h16.775  C255.643,275.958,255.454,274.825,255.939,273.789z" data-original="#B7B7B7" class="" data-old_color="#B7B7B7"/><rect x="242.3" y="353.15" style="fill:#7F7E7D" width="27.403" height="52.02" data-original="#666666" class="" data-old_color="#B7B7B7"/><path style="fill:#5B5A5A;" d="M256,353.155h-13.702c0,0.186,0,7.57,0,7.156c0,0.645,0,3.605,0,3.498c0,15.275,0,26.205,0,41.367  H256C256,404.302,256,350.368,256,353.155z" data-original="#5B5A5A"/><path style="fill:#7F7E7D" d="M255.053,0c-4.204,0-7.612,3.407-7.612,7.612c0,23.185,0,17.199,0,40.112  c0,4.204,3.408,7.612,7.612,7.612c4.204,0,7.612-3.407,7.612-7.612c0-23.185,0-17.199,0-40.112C262.665,3.407,259.257,0,255.053,0z" data-original="#666666" class="" data-old_color="#B7B7B7"/><polygon style="fill:#00CEFF" points="310.03,97.827 201.97,97.827 218.982,166.882 293.018,166.882 " data-original="#FFB70D" class="" data-old_color="#FF0060"/><g>
	<polygon style="fill:#00CEFF" points="242.298,97.827 201.97,97.827 218.982,166.881 242.298,166.881  " data-original="#EDA006" class="active-path" data-old_color="#FF0060"/>
	<polygon style="fill:#00CEFF" points="274.7,97.827 237.3,97.827 240.224,166.882 271.775,166.882  " data-original="#EDA006" class="active-path" data-old_color="#FF0060"/>
</g><polygon style="fill:#00CEFF" points="237.3,97.827 240.224,166.881 258.022,166.881 256,97.827 " data-original="#E09105" class="" data-old_color="#FF0060"/><g>
	<path style="fill:#7F7E7D" d="M293.018,193.319h-74.037c-7.581,0-13.726-6.145-13.726-13.726l0,0   c0-7.581,6.145-13.726,13.726-13.726h74.037c7.581,0,13.726,6.145,13.726,13.726l0,0   C306.744,187.174,300.599,193.319,293.018,193.319z" data-original="#E6E6E6" class="" data-old_color="#E6E6E6"/>
	<path style="fill:#7F7E7D" d="M307.787,73.143c-49.43,0-29.68,0-103.574,0c-7.581,0-13.726,6.145-13.726,13.726   s6.145,13.726,13.726,13.726c18.396,0,77.127,0,103.574,0c7.581,0,13.726-6.145,13.726-13.726   C321.513,79.288,315.368,73.143,307.787,73.143z" data-original="#E6E6E6" class="" data-old_color="#E6E6E6"/>
</g><g>
	<path style="fill:#5B5A5A" d="M252.069,179.593c0-7.581,6.145-13.726,13.726-13.726h-46.813c-7.581,0-13.726,6.145-13.726,13.726   s6.145,13.726,13.726,13.726h46.813C258.214,193.319,252.069,187.174,252.069,179.593z" data-original="#CCCCCC" class="" data-old_color="#CCCCCC"/>
	<path style="fill:#5B5A5A" d="M237.3,86.868c0-7.581,6.145-13.726,13.726-13.726c-9.933,0-35.838,0-46.813,0   c-7.581,0-13.726,6.145-13.726,13.726s6.145,13.726,13.726,13.726h3.045c8.425,0,15.906,0,26.493,0h17.275   C243.445,100.595,237.3,94.449,237.3,86.868z" data-original="#CCCCCC" class="" data-old_color="#CCCCCC"/>
</g><path style="fill:#7F7E7D" d="M207.949,73.143c-1.83,0-3.09-1.886-2.342-3.556c19.069-42.624,79.78-42.727,98.893,0  c0.747,1.671-0.512,3.556-2.342,3.556H207.949z" data-original="#7F7E7D" class=""/><path style="fill:#5B5A5A" d="M245.695,69.586c5.735-12.82,16.313-22.997,29.403-28.218c-26.731-10.662-57.539,1.502-69.491,28.218  c-0.747,1.671,0.512,3.556,2.342,3.556h40.088C246.207,73.142,244.947,71.257,245.695,69.586z" data-original="#727272" class="" data-old_color="#666666"/><g>
	<path style="fill:#00CEFF" d="M334.18,179.815l-3.963-5.773c-2.379-3.466-1.498-8.203,1.968-10.583   c3.467-2.381,8.204-1.498,10.583,1.968l3.963,5.773c2.379,3.466,1.498,8.203-1.968,10.583   C341.285,184.171,336.551,183.268,334.18,179.815z" data-original="#FFB70D" class="" data-old_color="#FF0060"/>
	<path style="fill:#00CEFF" d="M363.275,145.761l-6.885-1.28c-4.133-0.769-6.86-4.742-6.091-8.875   c0.769-4.133,4.741-6.852,8.875-6.092l6.885,1.28c4.133,0.769,6.86,4.742,6.091,8.875   C371.38,143.811,367.4,146.525,363.275,145.761z" data-original="#FFB70D" class="" data-old_color="#FF0060"/>
	<path style="fill:#00CEFF" d="M349.694,106.406c-7.463,0-10.464-9.666-4.315-13.888l5.773-3.963   c3.465-2.378,8.204-1.497,10.583,1.967c2.379,3.466,1.499,8.204-1.967,10.584l-5.773,3.963   C352.679,105.972,351.178,106.406,349.694,106.406z" data-original="#FFB70D" class="" data-old_color="#FF0060"/>
	<path style="fill:#00CEFF" d="M171.537,183.12c-1.485,0-2.984-0.433-4.301-1.337c-3.466-2.38-4.346-7.117-1.968-10.583   l3.963-5.773c2.379-3.467,7.117-4.349,10.583-1.968c3.466,2.38,4.347,7.117,1.968,10.583l-3.963,5.773   C176.344,181.965,173.961,183.12,171.537,183.12z" data-original="#FFB70D" class="" data-old_color="#FF0060"/>
	<path style="fill:#00CEFF" d="M147.325,145.889c-3.596,0-6.794-2.558-7.475-6.221c-0.769-4.133,1.958-8.106,6.091-8.875   l6.885-1.28c4.134-0.772,8.106,1.958,8.875,6.092c0.769,4.133-1.958,8.106-6.091,8.875l-6.885,1.28   C148.255,145.848,147.786,145.889,147.325,145.889z" data-original="#FFB70D" class="" data-old_color="#FF0060"/>
	<path style="fill:#00CEFF" d="M162.306,106.406c-1.485,0-2.984-0.433-4.301-1.337l-5.774-3.963   c-3.466-2.38-4.346-7.118-1.967-10.583c2.379-3.467,7.116-4.349,10.583-1.968l5.774,3.963c3.466,2.38,4.347,7.118,1.967,10.583   C167.113,105.25,164.73,106.406,162.306,106.406z" data-original="#FFB70D" class="" data-old_color="#FF0060"/>
</g><path style="fill:#7F7E7D" d="M285.432,457.193c-10.188,0-48.672,0-58.864,0c-6.698,0-12.179,5.481-12.179,12.179  c0,6.661,0,11.913,0,18.608c29.687,0,51.929,0,83.221,0c0-3.005,0-11.298,0-15.225v-3.383  C297.611,462.673,292.13,457.193,285.432,457.193z" data-original="#E6E6E6" class="" data-old_color="#E6E6E6"/><path style="fill:#5B5A5A" d="M246.359,469.371c0-6.698,5.481-12.179,12.179-12.179c-6.714,0-21.952,0-31.969,0  c-6.698,0-12.179,5.481-12.179,12.179c0,3.836,0,11.741,0,18.608c6.584,0,21.567,0,31.969,0  C246.359,484.143,246.359,476.239,246.359,469.371z" data-original="#CCCCCC" class="" data-old_color="#CCCCCC"/><path style="fill:#97BC31" d="M353.999,495.96c-1.124-6.469-6.735-11.364-13.488-11.364h-0.386c-97.632,0-58.986,0-168.635,0  c-7.342,0-13.479,5.832-13.685,13.361C157.63,505.839,163.929,512,171.489,512h1.501c51.114,0,117.51,0,167.521,0  C349.042,512,355.463,504.403,353.999,495.96z" data-original="#97BC31" class=""/><path style="fill:#00CEFF" d="M234.533,496.57c0.861-6.772,6.628-11.974,13.581-11.974c-28.164,0-52.117,0-76.624,0  c-7.412,0-13.496,5.923-13.684,13.361c-0.188,7.861,6.116,14.042,13.684,14.042h1.501c15.383,0,59.881,0,75.123,0  C239.963,512,233.486,504.887,234.533,496.57z" data-original="#76A314" class="" data-old_color="#FF0060"/></g> </svg>
